Coordinates
version=1
nRows=4
nColumns=107
inDegrees=yes

Units are S.I. units (second, meters, Newtons, ...)
If the header above contains a line with 'inDegrees', this indicates whether rotational values are in degrees (yes) or radians (no).

endheader
time	sternoclavicular_r2	sternoclavicular_r3	unrotscap_r3	unrotscap_r2	acromioclavicular_r2	acromioclavicular_r3	acromioclavicular_r1	unrothum_r1	unrothum_r3	unrothum_r2	elv_angle	shoulder_elv	shoulder1_r2	shoulder_rot	elbow_flexion	pro_sup	deviation	flexion	proximal_distal_r1	proximal_distal_r3	cmc_flexion	cmc_abduction	mp_flexion	ip_flexion	mcp2_flexion	mcp2_abduction	pm2_flexion	md2_flexion	mcp3_flexion	mcp3_abduction	pm3_flexion	md3_flexion	mcp4_flexion	mcp4_abduction	pm4_flexion	md4_flexion	mcp5_flexion	mcp5_abduction	pm5_flexion	md5_flexion	bicpt_tx	bicpt_ty	bicpt_tz	bicpt2_tx	bicpt2_ty	bicpt2_tz	ptpt_tx	ptpt_ty	ptpt_tz	FCUpt_tx	FCUpt_ty	FCUpt_tz	EDCpt_tx	EDCpt_ty	EDCpt_tz	APLpt_tx	APLpt_ty	APLpt_tz	FPLpt_tx	FPLpt_ty	FPLpt_tz	FPLpt2_tx	FPLpt2_ty	FPLpt2_tz	PEC1pt2_tx	PEC1pt2_ty	PEC1pt2_tz	PEC1pt3_tx	PEC1pt3_ty	PEC1pt3_tz	PEC2pt2_tx	PEC2pt2_ty	PEC2pt2_tz	PEC2pt3_tx	PEC2pt3_ty	PEC2pt3_tz	PEC3pt2_tx	PEC3pt2_ty	PEC3pt2_tz	PEC3pt3_tx	PEC3pt3_ty	PEC3pt3_tz	DELT2pt2a_tx	DELT2pt2a_ty	DELT2pt2a_tz	DELT2pt2_tx	DELT2pt2_ty	DELT2pt2_tz	LAT1pt2_tx	LAT1pt2_ty	LAT1pt2_tz	LAT1pt3_tx	LAT1pt3_ty	LAT1pt3_tz	LAT2pt2_tx	LAT2pt2_ty	LAT2pt2_tz	LAT2pt3_tx	LAT2pt3_ty	LAT2pt3_tz	LAT3pt2_tx	LAT3pt2_ty	LAT3pt2_tz	LAT3pt3_tx	LAT3pt3_ty	LAT3pt3_tz
      1.53333333	     -0.32493663	      0.13762782	     -0.13762782	      0.32493663	     -0.06579306	      0.53171634	      0.23900284	     -0.23900284	     -0.53171634	      0.06579306	     99.06404425	     76.93163450	     -1.72899374	    -21.58886896	     29.18555103	     51.09490698	      0.21984190	     -0.06397382	      0.25879771	     -0.03198691	     26.73200709	    -21.26546870	     -4.79253296	    -12.93786502	     -0.85450066	      0.38666975	     27.80500089	    -17.82987787	     -0.01871795	     -2.32782317	     15.74630224	     16.19524442	     -1.86563514	     -5.66626085	      7.93648497	     24.04616331	     -4.70148077	    -11.94192496	      5.16200434	      5.13756347	      0.00086537	     -0.03094511	     -0.00483881	      0.01645434	     -0.01812840	     -0.00619934	      0.00377466	     -0.06734120	     -0.00416597	      0.00891625	     -0.18324679	     -0.00041883	     -0.00613137	      0.00185057	      0.00003342	      0.00006203	      0.00002481	      0.00012407	      0.00007940	      0.00023821	      0.00013399	     -0.00000321	     -0.00027130	     -0.00032556	      0.00252165	      0.00884715	      0.00615454	     -0.00824879	      0.01991676	     -0.01889101	      0.00252165	      0.00884715	      0.00615454	      0.00055562	      0.01846361	     -0.00970194	      0.00397678	      0.00491979	      0.01603771	      0.00000000	      0.00791628	      0.00000000	     -0.00722303	     -0.03337981	     -0.00652809	      0.01467623	     -0.00048123	     -0.00386944	     -0.00089754	      0.01504442	     -0.00615454	      0.00247891	      0.02171184	     -0.01795073	     -0.00602632	      0.01303565	     -0.00551344	     -0.01256551	      0.02752445	     -0.03081542	     -0.02359239	      0.01457428	     -0.00739399	     -0.01564278	      0.03179844	     -0.03850859
      1.56666667	     -0.32239643	      0.13655191	     -0.13655191	      0.32239643	     -0.06527872	      0.52755965	      0.23713443	     -0.23713443	     -0.52755965	      0.06527872	     99.66755158	     76.33022095	     -1.73952693	    -24.40392100	     28.94222765	     52.66469309	      0.18029219	     -0.17067046	      0.21807630	     -0.08533523	     26.07502093	    -20.53420888	     -8.38034111	    -14.55812085	      0.96663279	     -0.97483777	     27.48849382	    -18.29399099	      2.54750817	     -3.03839319	     15.00110966	     14.48155045	      0.79767746	     -5.96056348	      7.03054754	     21.19598764	     -4.20661878	    -11.73147749	      7.48145670	      5.04025407	      0.00085732	     -0.03091722	     -0.00483432	      0.01641460	     -0.01806230	     -0.00600561	      0.00365867	     -0.06741620	     -0.00429242	      0.00908005	     -0.18320884	     -0.00041593	     -0.00631975	      0.00192018	      0.00001204	      0.00015023	      0.00006009	      0.00030046	      0.00019229	      0.00057688	      0.00032449	     -0.00000194	     -0.00027415	     -0.00032898	      0.00250194	      0.00877798	      0.00610642	     -0.00818430	      0.01976106	     -0.01874333	      0.00250194	      0.00877798	      0.00610642	      0.00055127	      0.01831927	     -0.00962610	      0.00395411	      0.00488132	      0.01598272	      0.00000000	      0.00779212	      0.00000000	     -0.00716657	     -0.03311886	     -0.00642503	      0.01618785	     -0.00057089	     -0.00497498	     -0.00089052	      0.01492681	     -0.00610642	      0.00245953	      0.02154210	     -0.01781040	     -0.00597921	      0.01293374	     -0.00547034	     -0.01246728	      0.02730928	     -0.03057452	     -0.02340795	      0.01446035	     -0.00733619	     -0.01552049	      0.03154985	     -0.03820755
      1.60000000	     -0.32340966	      0.13698107	     -0.13698107	      0.32340966	     -0.06548388	      0.52921766	      0.23787970	     -0.23787970	     -0.52921766	      0.06548388	     99.44519136	     76.57011140	     -1.73564601	    -23.19705039	     28.85116684	     51.73318962	      0.18532377	     -0.17187166	      0.22339890	     -0.08593583	     24.72780705	    -20.25633781	     -9.79825055	    -15.87829980	      1.10113566	     -2.10851871	     27.56408709	    -18.56245615	      3.19797967	     -3.64220112	     14.66633604	     14.55793743	      0.93883983	     -6.22024124	      7.76025630	     22.05804772	     -3.96632610	    -11.41018366	      7.92515138	      5.03825587	      0.00085431	     -0.03090678	     -0.00483264	      0.01643886	     -0.01803756	     -0.00612099	      0.00372750	     -0.06737169	     -0.00421739	      0.00898276	     -0.18323144	     -0.00041788	     -0.00620797	      0.00187878	      0.00002488	      0.00015111	      0.00006044	      0.00030222	      0.00019342	      0.00058027	      0.00032640	      0.00000082	     -0.00027849	     -0.00033419	      0.00250980	      0.00880557	      0.00612561	     -0.00821002	      0.01982317	     -0.01880223	      0.00250980	      0.00880557	      0.00612561	      0.00055301	      0.01837684	     -0.00965635	      0.00396317	      0.00489667	      0.01600476	      0.00000000	      0.00784152	      0.00000000	     -0.00718909	     -0.03322295	     -0.00646604	      0.01555285	     -0.00053210	     -0.00448667	     -0.00089332	      0.01497372	     -0.00612561	      0.00246726	      0.02160981	     -0.01786637	     -0.00599800	      0.01297439	     -0.00548753	     -0.01250646	      0.02739511	     -0.03067061	     -0.02348152	      0.01450579	     -0.00735924	     -0.01556927	      0.03164901	     -0.03832763
      1.63333333	     -0.32424591	      0.13733526	     -0.13733526	      0.32424591	     -0.06565320	      0.53058608	      0.23849479	     -0.23849479	     -0.53058608	      0.06565320	     99.25765316	     76.76810175	     -1.73237286	    -22.23661841	     28.81466579	     51.13134568	      0.19178946	     -0.16358898	      0.23017800	     -0.08179449	     23.64425507	    -20.08006284	    -10.64834394	    -17.34352221	      0.82909733	     -2.65311592	     28.12584479	    -18.74539534	      3.26819128	     -4.03276423	     14.92022030	     15.06794398	      1.09310204	     -6.39289750	      7.75070466	     23.00403975	     -3.77025897	    -11.33611610	      8.18192720	      5.04815139	      0.00085310	     -0.03090260	     -0.00483196	      0.01645347	     -0.01802765	     -0.00619488	      0.00377197	     -0.06734294	     -0.00416890	      0.00892005	     -0.18324591	     -0.00041878	     -0.00613575	      0.00185218	      0.00003293	      0.00014496	      0.00005799	      0.00028993	      0.00018555	      0.00055666	      0.00031312	      0.00000319	     -0.00028052	     -0.00033663	      0.00251629	      0.00882834	      0.00614145	     -0.00823125	      0.01987443	     -0.01885085	      0.00251629	      0.00882834	      0.00614145	      0.00055444	      0.01842436	     -0.00968132	      0.00397063	      0.00490933	      0.01602284	      0.00000000	      0.00788242	      0.00000000	     -0.00720768	     -0.03330885	     -0.00649998	      0.01503345	     -0.00050160	     -0.00411344	     -0.00089563	      0.01501244	     -0.00614145	      0.00247364	      0.02166568	     -0.01791257	     -0.00601351	      0.01300794	     -0.00550172	     -0.01253880	      0.02746594	     -0.03074992	     -0.02354224	      0.01454330	     -0.00737827	     -0.01560953	      0.03173084	     -0.03842673
